<svg width="19" height="20" viewBox="0 0 19 20" fill="none" xmlns="http://www.w3.org/2000/svg">
<g clip-path="url(#clip0_10_201)">
<path d="M9.43359 20C14.6436 20 18.8672 15.7764 18.8672 10.5664C18.8672 5.35638 14.6436 1.13281 9.43359 1.13281C4.22356 1.13281 0 5.35638 0 10.5664C0 15.7764 4.22356 20 9.43359 20Z" fill="#F4900C"/>
<path d="M9.43359 18.8672C14.6436 18.8672 18.8672 14.6436 18.8672 9.43359C18.8672 4.22356 14.6436 0 9.43359 0C4.22356 0 0 4.22356 0 9.43359C0 14.6436 4.22356 18.8672 9.43359 18.8672Z" fill="#FFCC4D"/>
<path d="M9.43359 17.7539C13.7483 17.7539 17.2461 14.2561 17.2461 9.94141C17.2461 5.62668 13.7483 2.12891 9.43359 2.12891C5.11887 2.12891 1.62109 5.62668 1.62109 9.94141C1.62109 14.2561 5.11887 17.7539 9.43359 17.7539Z" fill="#FFE8B6"/>
<path d="M9.43359 17.2461C13.7483 17.2461 17.2461 13.7483 17.2461 9.43359C17.2461 5.11887 13.7483 1.62109 9.43359 1.62109C5.11887 1.62109 1.62109 5.11887 1.62109 9.43359C1.62109 13.7483 5.11887 17.2461 9.43359 17.2461Z" fill="#FFAC33"/>
<path d="M13.25 11.9004C13.1782 11.7406 13.0407 11.6227 12.8727 11.5762L12.4165 11.4395L12.4086 11.4371C12.1399 11.3637 11.8563 11.4859 11.7301 11.7273C11.6512 11.8641 11.5461 11.9945 11.4176 12.1145C11.2161 12.2848 10.9688 12.4277 10.6833 12.5402C10.6098 12.5691 10.5356 12.5938 10.4602 12.6148V7.06719C10.6239 7.1168 10.7793 7.18438 10.9262 7.2711L10.9375 7.27735C11.229 7.43282 11.4684 7.64805 11.6493 7.91719C11.7895 8.14336 12.0563 8.24766 12.3168 8.17696L12.7934 8.02227C12.97 7.96368 13.1067 7.82891 13.1684 7.65313C13.2301 7.47813 13.2075 7.28829 13.1063 7.13047C12.793 6.64766 12.3915 6.26251 11.9125 5.98633C11.4809 5.71758 10.9942 5.54493 10.4602 5.46915V4.98594C10.4602 4.68165 10.2125 4.43399 9.90825 4.43399H9.21528C8.91099 4.43399 8.66333 4.68165 8.66333 4.98594V5.57422C8.28716 5.67618 7.93091 5.82969 7.5981 6.03438C6.96489 6.42383 6.45981 6.95821 6.09771 7.61993C5.74341 8.25508 5.56372 8.98712 5.56372 9.79571C5.56372 10.6043 5.75083 11.3406 6.12153 12.0078C6.50161 12.6789 7.00864 13.2188 7.62856 13.6125C7.9481 13.8152 8.2938 13.968 8.66294 14.0703V14.6633C8.66294 14.9676 8.9106 15.2152 9.21489 15.2152H9.90786C10.2122 15.2152 10.4598 14.9676 10.4598 14.6633V14.1844C10.775 14.143 11.077 14.0699 11.3625 13.9645C11.8192 13.8008 12.2403 13.5481 12.6149 13.2137L12.6219 13.207C12.8825 12.9598 13.0821 12.7051 13.2329 12.4289L13.2379 12.4191C13.32 12.2555 13.3239 12.0664 13.2493 11.9008L13.25 11.9004ZM8.66333 12.409C8.61919 12.3836 8.57505 12.357 8.53169 12.3285C8.14927 12.077 7.83169 11.7234 7.58755 11.2781C7.35044 10.8449 7.23521 10.3637 7.23521 9.80704C7.23521 9.2504 7.35044 8.78008 7.57896 8.35391C7.80356 7.9254 8.11177 7.58165 8.49536 7.33282C8.55005 7.29727 8.60591 7.26485 8.66333 7.23438V12.409Z" fill="#F4900C"/>
<path d="M13.25 11.1191C13.1782 10.9594 13.0407 10.8414 12.8727 10.7949L12.4165 10.6582L12.4086 10.6559C12.1399 10.5824 11.8563 10.7047 11.7301 10.9461C11.6512 11.0828 11.5461 11.2133 11.4176 11.3332C11.2161 11.5035 10.9688 11.6465 10.6833 11.759C10.6098 11.7879 10.5356 11.8125 10.4602 11.8336V6.28594C10.6239 6.33555 10.7793 6.40313 10.9262 6.48985L10.9375 6.4961C11.229 6.65157 11.4684 6.8668 11.6493 7.13594C11.7895 7.36211 12.0563 7.46641 12.3168 7.39571L12.7934 7.24102C12.97 7.18243 13.1067 7.04766 13.1684 6.87188C13.2301 6.69688 13.2075 6.50704 13.1063 6.34922C12.793 5.86641 12.3915 5.48126 11.9125 5.20508C11.4809 4.93633 10.9942 4.76368 10.4602 4.6879V4.20469C10.4602 3.9004 10.2125 3.65274 9.90825 3.65274H9.21528C8.91099 3.65274 8.66333 3.9004 8.66333 4.20469V4.79297C8.28716 4.89493 7.93091 5.04844 7.5981 5.25313C6.96489 5.64258 6.45981 6.17696 6.09771 6.83868C5.74341 7.47383 5.56372 8.20587 5.56372 9.01446C5.56372 9.82305 5.75083 10.5594 6.12153 11.2266C6.50161 11.8977 7.00864 12.4375 7.62856 12.8313C7.9481 13.034 8.2938 13.1867 8.66294 13.2891V13.882C8.66294 14.1863 8.9106 14.434 9.21489 14.434H9.90786C10.2122 14.434 10.4598 14.1863 10.4598 13.882V13.4031C10.775 13.3617 11.077 13.2887 11.3625 13.1832C11.8192 13.0195 12.2403 12.7668 12.6149 12.4324L12.6219 12.4258C12.8825 12.1785 13.0821 11.9238 13.2329 11.6477L13.2379 11.6379C13.32 11.4742 13.3239 11.2852 13.2493 11.1195L13.25 11.1191ZM8.66333 11.6277C8.61919 11.6023 8.57505 11.5758 8.53169 11.5473C8.14927 11.2957 7.83169 10.9422 7.58755 10.4969C7.35044 10.0637 7.23521 9.58243 7.23521 9.02579C7.23521 8.46915 7.35044 7.99883 7.57896 7.57266C7.80356 7.14415 8.11177 6.8004 8.49536 6.55157C8.55005 6.51602 8.60591 6.4836 8.66333 6.45313V11.6277Z" fill="#FFE8B6"/>
<path d="M9.84338 13.5211C9.07307 13.5211 8.39456 13.3371 7.7969 12.9578C7.19885 12.5785 6.73909 12.0727 6.39416 11.4633C6.04924 10.8426 5.87659 10.1527 5.87659 9.40509C5.87659 8.65743 6.03752 7.97931 6.37112 7.38165C6.70471 6.77228 7.16448 6.27775 7.76252 5.90978C8.36057 5.54181 9.0387 5.3465 9.82073 5.3465C10.5567 5.3465 11.2004 5.51915 11.7524 5.86407C12.2121 6.12853 12.5688 6.48478 12.8446 6.91056C12.9481 7.0715 12.8676 7.27853 12.6949 7.33595L12.2352 7.48556C12.1086 7.51993 11.9821 7.47423 11.9133 7.359C11.7063 7.04845 11.4305 6.79572 11.0856 6.61173C10.6946 6.38165 10.2578 6.26681 9.77502 6.26681C9.24612 6.26681 8.75159 6.4047 8.3262 6.68087C7.90081 6.95665 7.55588 7.33634 7.30276 7.81915C7.04963 8.29064 6.92346 8.83087 6.92346 9.4172C6.92346 10.0035 7.05002 10.5555 7.31448 11.0383C7.57893 11.5211 7.92385 11.9121 8.36096 12.1996C8.79807 12.4871 9.26916 12.625 9.79807 12.625C10.143 12.625 10.4766 12.5676 10.7985 12.441C11.1203 12.3145 11.3965 12.1535 11.6262 11.9582C11.7871 11.8086 11.9137 11.6477 12.0055 11.4867C12.0629 11.3719 12.2008 11.3141 12.3274 11.3488L12.7871 11.4867C12.9598 11.5328 13.0399 11.7281 12.9598 11.8891C12.8219 12.1418 12.6379 12.3719 12.4078 12.5902C12.086 12.8777 11.7067 13.1192 11.2582 13.2801C10.8211 13.441 10.3383 13.5215 9.84416 13.5215L9.84338 13.5211Z" fill="#FFD983"/>
<path d="M9.84336 13.8336C9.01406 13.8336 8.26914 13.6277 7.6293 13.2215C7.00898 12.8277 6.50195 12.2879 6.12227 11.6168C5.75156 10.9496 5.56445 10.2063 5.56445 9.40469C5.56445 8.60313 5.74414 7.86407 6.09844 7.22891C6.46055 6.56719 6.96562 6.03282 7.59883 5.64337C8.25625 5.23868 9.00391 5.0336 9.8207 5.0336C10.6375 5.0336 11.3145 5.22266 11.9129 5.59532C12.3918 5.87188 12.7934 6.25665 13.1066 6.73946C13.2082 6.89727 13.2305 7.08751 13.1687 7.26212C13.1066 7.4379 12.9699 7.57266 12.7937 7.63126L12.3172 7.78594C12.057 7.85704 11.7898 7.75274 11.65 7.52657C11.4695 7.25743 11.2301 7.04219 10.9383 6.88633L10.927 6.88008C10.5863 6.67969 10.1988 6.57813 9.77461 6.57813C9.29805 6.57813 8.86797 6.7004 8.49609 6.9418C8.1125 7.19063 7.8043 7.53438 7.57969 7.9629C7.35117 8.38907 7.23594 8.87696 7.23594 9.41602C7.23594 9.95508 7.35117 10.4539 7.58828 10.8871C7.83203 11.3324 8.14961 11.6856 8.53242 11.9375C8.91484 12.1891 9.32891 12.3113 9.79805 12.3113C10.116 12.3113 10.4059 12.2582 10.684 12.1488C10.9699 12.0367 11.2168 11.8934 11.4184 11.7231C11.5469 11.6031 11.652 11.4727 11.7309 11.3359C11.8574 11.0945 12.141 10.9723 12.4098 11.0457L12.4176 11.0481L12.8738 11.1848C13.0418 11.2313 13.1793 11.3492 13.2512 11.509C13.3258 11.6746 13.3219 11.8637 13.2398 12.0273L13.2348 12.0375C13.084 12.3137 12.8844 12.5684 12.6238 12.8156L12.6168 12.8223C12.2422 13.1566 11.8207 13.4094 11.3645 13.5731C10.8973 13.7453 10.3852 13.8328 9.84453 13.8328L9.84336 13.8336ZM9.82031 5.6586C9.11094 5.6586 8.49141 5.82774 7.92617 6.17579C7.38672 6.50782 6.95586 6.96368 6.64531 7.53126C6.34219 8.07462 6.18906 8.7043 6.18906 9.40469C6.18906 10.1051 6.35 10.7398 6.66719 11.3109C6.99492 11.8895 7.43164 12.3555 7.96406 12.6938C8.50977 13.0402 9.12461 13.2086 9.84336 13.2086C10.3031 13.2086 10.7551 13.1316 11.1496 12.9863C11.5312 12.8492 11.8824 12.6391 12.1957 12.3598C12.3945 12.1703 12.548 11.9789 12.6645 11.7754L12.2676 11.6563C12.157 11.8461 12.0125 12.0246 11.8383 12.1863L11.8281 12.1953C11.573 12.4121 11.2648 12.5926 10.9121 12.7309C10.5648 12.8672 10.1898 12.9363 9.79766 12.9363C9.20273 12.9363 8.67656 12.7805 8.18867 12.4594C7.71992 12.1508 7.3332 11.7231 7.03984 11.1871C6.75508 10.6668 6.61055 10.0711 6.61055 9.41602C6.61055 8.76094 6.75078 8.18516 7.02695 7.66993C7.30039 7.14766 7.68086 6.7254 8.15547 6.41719C8.63047 6.10899 9.175 5.95313 9.77422 5.95313C10.309 5.95313 10.8012 6.08243 11.2379 6.3379C11.618 6.5418 11.9313 6.82423 12.1684 7.17735L12.5625 7.04923C12.3031 6.65821 11.9867 6.35821 11.5965 6.13399L11.5867 6.12813C11.0879 5.81641 10.4937 5.65821 9.8207 5.65821L9.82031 5.6586Z" fill="#FFD983"/>
<path d="M9.90862 4.35547H9.21565C9.0834 4.35547 8.9762 4.46268 8.9762 4.59492V14.2723C8.9762 14.4045 9.0834 14.5117 9.21565 14.5117H9.90862C10.0409 14.5117 10.1481 14.4045 10.1481 14.2723V4.59492C10.1481 4.46268 10.0409 4.35547 9.90862 4.35547Z" fill="#FFD983"/>
<path d="M9.90862 14.8242H9.21565C8.91135 14.8242 8.6637 14.5766 8.6637 14.2723V4.59492C8.6637 4.29062 8.91135 4.04297 9.21565 4.04297H9.90862C10.2129 4.04297 10.4606 4.29062 10.4606 4.59492V14.2723C10.4606 14.5766 10.2129 14.8242 9.90862 14.8242ZM9.2887 14.1992H9.83557V4.66797H9.2887V14.1992Z" fill="#FFD983"/>
</g>
<defs>
<clipPath id="clip0_10_201">
<rect width="18.8672" height="20" fill="white"/>
</clipPath>
</defs>
</svg>
